<svg width="16" height="14" viewBox="0 0 16 14" fill="none" xmlns="http://www.w3.org/2000/svg">
<path fill-rule="evenodd" clip-rule="evenodd" d="M3.18733 14C2.78533 14 2.45533 13.7229 2.438 13.3706C2.352 11.5506 2.11 6.39975 2.11 6.39975L0.966 8.21158C0.842 8.40933 0.570667 8.49508 0.330667 8.414L0.33 8.41342C0.127333 8.34458 0 8.176 0 7.99342L0.0193333 7.87092L1.12533 4.45492C1.234 4.12008 1.58333 3.88908 1.98133 3.88908H14.0187C14.4167 3.88908 14.766 4.12008 14.8747 4.45492L15.9807 7.87092L16 7.99342C16 8.176 15.8727 8.34458 15.67 8.41342L15.6693 8.414C15.4293 8.49508 15.158 8.40933 15.034 8.21158L13.89 6.39975C13.89 6.39975 13.648 11.5506 13.562 13.3706C13.5447 13.7229 13.2153 14 12.8133 14C12.4193 14 12.096 13.7322 12.066 13.3892C11.998 12.6327 11.8167 10.8226 11.762 10.1062C11.7393 9.80875 11.4907 9.63375 11.2207 9.63375C10.9787 9.63375 10.7067 9.80875 10.6847 10.1062C10.6293 10.8226 10.448 12.6327 10.3807 13.3892C10.35 13.7322 10.0273 14 9.634 14H9.63267C9.23133 14 8.90133 13.7229 8.88467 13.3706C8.798 11.5506 8.45533 5.83333 8.45533 5.83333H7.55667C7.55667 5.83333 7.202 11.5506 7.11533 13.3706C7.09867 13.7229 6.76867 14 6.36733 14H6.366C5.97267 14 5.65 13.7322 5.61933 13.3892C5.552 12.6327 5.37067 10.8226 5.31533 10.1062C5.29333 9.80875 5.02133 9.63375 4.77933 9.63375C4.50933 9.63375 4.26067 9.80875 4.238 10.1062C4.18333 10.8226 4.002 12.6327 3.934 13.3892C3.904 13.7322 3.58133 14 3.18733 14ZM4.77667 0C5.88067 0 6.77667 0.784 6.77667 1.75C6.77667 2.716 5.88067 3.5 4.77667 3.5C3.67333 3.5 2.77667 2.716 2.77667 1.75C2.77667 0.784 3.67333 0 4.77667 0ZM11.2233 0C10.1193 0 9.22333 0.784 9.22333 1.75C9.22333 2.716 10.1193 3.5 11.2233 3.5C12.3267 3.5 13.2233 2.716 13.2233 1.75C13.2233 0.784 12.3267 0 11.2233 0Z" fill="#4E565F"/>
</svg>
