<svg width="13" height="15" viewBox="0 0 13 15" fill="none" xmlns="http://www.w3.org/2000/svg">
<path d="M12.9973 4.66442V4.66425C12.9582 3.82184 12.4176 2.99582 11.5515 2.45496C10.9168 2.05842 10.2623 1.88173 9.56124 1.91926C9.11301 0.78403 7.89784 0 6.49999 0C5.10213 0 3.88696 0.78403 3.43877 1.91926C2.7021 1.8795 2.04325 2.08305 1.44848 2.45496C0.582427 2.99582 0.0418042 3.82184 0.00267847 4.66442C-0.0304779 5.38105 0.245317 6.07817 0.767545 6.62447C0.477313 7.27057 0.466023 7.95463 0.738606 8.62233C1.11702 9.54864 2.01091 10.2501 3.07165 10.4528C4.20046 10.6686 5.34334 10.3655 6.13183 9.64343C6.31591 9.47531 6.62093 9.46938 6.81244 9.63019C7.73151 10.4025 8.84753 10.6598 9.92871 10.4527C10.9898 10.2498 11.8837 9.54815 12.2614 8.62198C12.5364 7.9487 12.5135 7.24614 12.2385 6.61754C12.7566 6.0723 13.0303 5.3781 12.9973 4.66442Z" fill="#4E565F"/>
<rect x="2.07617" y="9.1665" width="8.3053" height="1.83332" rx="0.916659" fill="#4E565F"/>
<rect x="3.11426" y="14" width="6.22898" height="0.999992" rx="0.499996" fill="#4E565F"/>
<rect x="5.19043" y="12" width="2.07633" height="1.99998" fill="#4E565F"/>
</svg>
